<svg height='300px' width='300px'  fill="#000000" xmlns="http://www.w3.org/2000/svg" xmlns:xlink="http://www.w3.org/1999/xlink" version="1.1" x="0px" y="0px" viewBox="0 0 100 100" style="enable-background:new 0 0 100 100;" xml:space="preserve"><g><path d="M62.3,29.7c0-3.2-2.6-5.8-5.8-5.8h-13c-3.2,0-5.8,2.6-5.8,5.8v13c0,3.2,2.6,5.8,5.8,5.8h13c3.2,0,5.8-2.6,5.8-5.8V29.7z    M59.5,42.7c0,1.6-1.3,2.9-2.9,2.9H43.5c-1.6,0-2.9-1.3-2.9-2.9V29.6c0-1.6,1.3-2.9,2.9-2.9h13.1c1.6,0,2.9,1.3,2.9,2.9V42.7z"></path><polygon points="46.4,36.9 53.6,36.9 50,29.7  "></polygon><path d="M34.7,57.3c0-3.2-2.6-5.8-5.8-5.8h-13c-3.2,0-5.8,2.6-5.8,5.8v13c0,3.2,2.6,5.8,5.8,5.8h13c3.2,0,5.8-2.6,5.8-5.8V57.3z    M31.9,70.4c0,1.6-1.3,2.9-2.9,2.9H15.9c-1.6,0-2.9-1.3-2.9-2.9V57.3c0-1.6,1.3-2.9,2.9-2.9h13.1c1.6,0,2.9,1.3,2.9,2.9V70.4z"></path><polygon points="26,64.6 26,57.3 18.7,61  "></polygon><path d="M62.3,57.3c0-3.2-2.6-5.8-5.8-5.8h-13c-3.2,0-5.8,2.6-5.8,5.8v13c0,3.2,2.6,5.8,5.8,5.8h13c3.2,0,5.8-2.6,5.8-5.8V57.3z    M59.5,70.4c0,1.6-1.3,2.9-2.9,2.9H43.5c-1.6,0-2.9-1.3-2.9-2.9V57.3c0-1.6,1.3-2.9,2.9-2.9h13.1c1.6,0,2.9,1.3,2.9,2.9V70.4z"></path><polygon points="50,64.6 53.6,57.3 46.4,57.3  "></polygon><path d="M90,57.3c0-3.2-2.6-5.8-5.8-5.8h-13c-3.2,0-5.8,2.6-5.8,5.8v13c0,3.2,2.6,5.8,5.8,5.8h13c3.2,0,5.8-2.6,5.8-5.8V57.3z    M87.1,70.4c0,1.6-1.3,2.9-2.9,2.9H71.1c-1.6,0-2.9-1.3-2.9-2.9V57.3c0-1.6,1.3-2.9,2.9-2.9h13.1c1.6,0,2.9,1.3,2.9,2.9V70.4z"></path><polygon points="74,64.6 81.3,61 74,57.3  "></polygon></g></svg>