<?xml version="1.0" encoding="UTF-8"?>
<svg width="152px" height="100px" viewBox="0 0 152 100" version="1.1" xmlns="http://www.w3.org/2000/svg" xmlns:xlink="http://www.w3.org/1999/xlink">
    <!-- Generator: Sketch 63.1 (92452) - https://sketch.com -->
    <title>img-onboarding-keyarrows</title>
    <desc>Created with Sketch.</desc>
    <g id="Page-1" stroke="none" stroke-width="1" fill="none" fill-rule="evenodd">
        <g id="iPhone-Copy-29" transform="translate(-258.000000, -168.000000)">
            <g id="Group-16" transform="translate(121.000000, 60.000000)">
                <g id="Group-6" transform="translate(137.000000, 108.000000)">
                    <rect id="Rectangle" stroke="#EBEAEA" stroke-width="2" fill="#EAEAEA" x="53" y="1" width="46" height="46" rx="4"></rect>
                    <g id="icon" transform="translate(64.000000, 12.000000)" fill="#1F2E66" fill-rule="nonzero">
                        <path d="M11.9950464,21 C12.8866873,21 13.4910217,20.3755869 13.4910217,19.4538341 L13.4910217,9.66040689 L13.3919505,7.5096505 L15.2544892,9.67031821 L17.5133127,11.9300991 C17.7907121,12.1977047 18.1374613,12.3959311 18.5832817,12.3959311 C19.3857585,12.3959311 20,11.8111633 20,10.9587898 C20,10.5722483 19.8414861,10.2055295 19.5343653,9.88836724 L13.0947368,3.44600939 C12.8173375,3.16849244 12.4012384,3 11.9950464,3 C11.5888545,3 11.1727554,3.16849244 10.895356,3.44600939 L4.46563467,9.88836724 C4.15851393,10.2055295 4,10.5722483 4,10.9587898 C4,11.8111633 4.61424149,12.3959311 5.41671827,12.3959311 C5.8625387,12.3959311 6.20928793,12.1977047 6.47678019,11.9300991 L8.73560372,9.67031821 L10.5981424,7.5096505 L10.5089783,9.66040689 L10.5089783,19.4538341 C10.5089783,20.3755869 11.1034056,21 11.9950464,21 Z" id="icn"></path>
                    </g>
                    <rect id="Rectangle-Copy-5" fill="#EAEAEA" x="52" y="52" width="48" height="48" rx="4"></rect>
                    <g id="icon" transform="translate(76.000000, 76.000000) scale(1, -1) translate(-76.000000, -76.000000) translate(64.000000, 64.000000)" fill="#1F2E66" fill-rule="nonzero">
                        <path d="M11.9950464,21 C12.8866873,21 13.4910217,20.3755869 13.4910217,19.4538341 L13.4910217,9.66040689 L13.3919505,7.5096505 L15.2544892,9.67031821 L17.5133127,11.9300991 C17.7907121,12.1977047 18.1374613,12.3959311 18.5832817,12.3959311 C19.3857585,12.3959311 20,11.8111633 20,10.9587898 C20,10.5722483 19.8414861,10.2055295 19.5343653,9.88836724 L13.0947368,3.44600939 C12.8173375,3.16849244 12.4012384,3 11.9950464,3 C11.5888545,3 11.1727554,3.16849244 10.895356,3.44600939 L4.46563467,9.88836724 C4.15851393,10.2055295 4,10.5722483 4,10.9587898 C4,11.8111633 4.61424149,12.3959311 5.41671827,12.3959311 C5.8625387,12.3959311 6.20928793,12.1977047 6.47678019,11.9300991 L8.73560372,9.67031821 L10.5981424,7.5096505 L10.5089783,9.66040689 L10.5089783,19.4538341 C10.5089783,20.3755869 11.1034056,21 11.9950464,21 Z" id="icn"></path>
                    </g>
                    <rect id="Rectangle-Copy-6" fill="#EAEAEA" x="104" y="52" width="48" height="48" rx="4"></rect>
                    <g id="icon" transform="translate(128.000000, 76.000000) scale(1, -1) rotate(-270.000000) translate(-128.000000, -76.000000) translate(116.000000, 64.000000)" fill="#1F2E66" fill-rule="nonzero">
                        <path d="M11.9950464,21 C12.8866873,21 13.4910217,20.3755869 13.4910217,19.4538341 L13.4910217,9.66040689 L13.3919505,7.5096505 L15.2544892,9.67031821 L17.5133127,11.9300991 C17.7907121,12.1977047 18.1374613,12.3959311 18.5832817,12.3959311 C19.3857585,12.3959311 20,11.8111633 20,10.9587898 C20,10.5722483 19.8414861,10.2055295 19.5343653,9.88836724 L13.0947368,3.44600939 C12.8173375,3.16849244 12.4012384,3 11.9950464,3 C11.5888545,3 11.1727554,3.16849244 10.895356,3.44600939 L4.46563467,9.88836724 C4.15851393,10.2055295 4,10.5722483 4,10.9587898 C4,11.8111633 4.61424149,12.3959311 5.41671827,12.3959311 C5.8625387,12.3959311 6.20928793,12.1977047 6.47678019,11.9300991 L8.73560372,9.67031821 L10.5981424,7.5096505 L10.5089783,9.66040689 L10.5089783,19.4538341 C10.5089783,20.3755869 11.1034056,21 11.9950464,21 Z" id="icn"></path>
                    </g>
                    <rect id="Rectangle-Copy-7" fill="#EAEAEA" x="0" y="52" width="48" height="48" rx="4"></rect>
                    <g id="icon" transform="translate(24.000000, 76.000000) scale(-1, -1) rotate(-270.000000) translate(-24.000000, -76.000000) translate(12.000000, 64.000000)" fill="#1F2E66" fill-rule="nonzero">
                        <path d="M11.9950464,21 C12.8866873,21 13.4910217,20.3755869 13.4910217,19.4538341 L13.4910217,9.66040689 L13.3919505,7.5096505 L15.2544892,9.67031821 L17.5133127,11.9300991 C17.7907121,12.1977047 18.1374613,12.3959311 18.5832817,12.3959311 C19.3857585,12.3959311 20,11.8111633 20,10.9587898 C20,10.5722483 19.8414861,10.2055295 19.5343653,9.88836724 L13.0947368,3.44600939 C12.8173375,3.16849244 12.4012384,3 11.9950464,3 C11.5888545,3 11.1727554,3.16849244 10.895356,3.44600939 L4.46563467,9.88836724 C4.15851393,10.2055295 4,10.5722483 4,10.9587898 C4,11.8111633 4.61424149,12.3959311 5.41671827,12.3959311 C5.8625387,12.3959311 6.20928793,12.1977047 6.47678019,11.9300991 L8.73560372,9.67031821 L10.5981424,7.5096505 L10.5089783,9.66040689 L10.5089783,19.4538341 C10.5089783,20.3755869 11.1034056,21 11.9950464,21 Z" id="icn"></path>
                    </g>
                </g>
            </g>
        </g>
    </g>
</svg>