<svg id="svg" xmlns="http://www.w3.org/2000/svg" xmlns:xlink="http://www.w3.org/1999/xlink" width="400" height="277.14285714285717" viewBox="0, 0, 400,277.14285714285717"><g id="svgg"><path id="path0" d="M143.432 21.089 L 141.429 23.131 141.429 77.453 L 141.429 131.775 143.355 133.110 C 146.138 135.039,150.288 135.178,206.210 135.210 L 254.087 135.238 256.091 133.196 L 258.095 131.154 258.057 80.934 C 258.014 23.623,258.010 23.504,255.858 21.353 L 254.350 19.844 245.865 19.477 C 241.199 19.274,216.693 19.095,191.409 19.078 L 145.436 19.048 143.432 21.089 M244.169 76.956 L 244.291 120.817 238.693 121.070 C 234.180 121.275,157.970 121.220,155.833 121.011 C 155.186 120.947,154.913 33.817,155.558 33.172 C 155.734 32.996,175.716 32.907,199.963 32.974 L 244.048 33.095 244.169 76.956 M194.749 63.156 C 188.025 69.209,173.782 83.356,172.815 84.941 C 171.054 87.829,171.977 90.916,175.327 93.343 C 179.258 96.191,180.456 95.538,192.974 83.720 L 199.520 77.540 205.355 83.007 C 218.470 95.292,219.580 95.936,223.603 93.578 C 227.354 91.380,228.483 87.513,226.259 84.476 C 222.865 79.840,201.086 59.524,199.511 59.524 C 199.110 59.524,196.968 61.158,194.749 63.156 M15.547 150.005 C 9.578 150.767,9.921 147.328,9.670 208.999 L 9.459 260.616 11.736 262.927 L 14.012 265.238 68.374 265.238 L 122.736 265.238 124.701 263.106 L 126.667 260.974 126.667 207.493 L 126.667 154.012 124.388 151.768 L 122.110 149.524 70.222 149.586 C 41.683 149.621,17.080 149.809,15.547 150.005 M147.301 149.957 C 141.386 150.678,141.754 146.926,141.555 208.526 L 141.386 261.099 143.431 263.159 L 145.476 265.219 200.064 265.229 L 254.651 265.238 256.373 263.332 L 258.095 261.426 258.092 209.641 C 258.090 156.252,257.997 153.498,256.129 150.971 L 255.059 149.524 202.410 149.591 C 173.454 149.628,148.655 149.793,147.301 149.957 M278.254 149.957 C 272.242 150.689,272.619 146.835,272.619 207.619 C 272.619 265.903,272.395 262.043,275.876 263.725 C 278.230 264.863,293.076 265.210,340.020 265.224 L 385.992 265.238 387.996 263.196 L 390.000 261.154 389.981 207.601 L 389.962 154.048 387.880 151.786 L 385.798 149.524 333.256 149.591 C 304.358 149.628,279.607 149.793,278.254 149.957 M112.264 207.265 L 112.386 251.433 67.979 251.312 L 23.571 251.190 23.450 207.286 L 23.328 163.381 26.069 163.238 C 27.576 163.160,47.560 163.096,70.476 163.096 L 112.143 163.097 112.264 207.265 M243.931 163.279 C 244.129 163.309,244.236 183.101,244.169 207.262 L 244.048 251.190 199.762 251.190 L 155.476 251.190 155.355 207.283 L 155.233 163.375 158.688 163.235 C 161.808 163.109,243.075 163.151,243.931 163.279 M375.944 206.946 C 376.158 233.332,376.126 250.731,375.861 250.996 C 375.600 251.257,357.511 251.385,330.926 251.312 L 286.429 251.190 286.429 207.721 C 286.429 169.599,286.516 164.195,287.143 163.799 C 287.579 163.523,304.915 163.345,331.723 163.341 L 375.589 163.333 375.944 206.946 M75.564 181.946 C 73.614 183.237,57.854 199.538,52.409 205.896 L 50.418 208.220 51.546 209.467 C 78.021 238.728,79.222 239.615,84.477 233.799 C 87.986 229.915,87.002 227.661,76.898 216.435 C 68.582 207.197,68.771 208.274,74.448 202.433 C 85.392 191.175,87.544 187.406,85.110 183.761 C 82.821 180.334,79.072 179.622,75.564 181.946 M317.357 181.146 C 310.602 184.089,311.797 188.376,322.685 200.252 C 326.053 203.927,329.094 207.291,329.442 207.727 C 330.000 208.427,329.393 209.238,324.339 214.546 C 312.922 226.536,311.540 228.895,313.899 232.370 C 315.527 234.767,317.869 236.190,320.189 236.192 C 322.154 236.193,337.603 221.486,346.577 211.072 L 349.106 208.136 343.032 201.568 C 322.626 179.501,322.098 179.081,317.357 181.146 M176.842 190.518 C 176.022 190.756,174.575 191.809,173.628 192.858 C 169.909 196.974,171.474 199.533,187.849 216.103 L 199.762 228.158 212.195 215.627 C 228.480 199.213,229.362 197.865,226.688 193.478 C 223.085 187.570,219.437 188.800,208.255 199.689 C 203.776 204.051,199.951 207.619,199.754 207.619 C 199.557 207.619,195.719 204.022,191.225 199.625 C 181.679 190.285,180.412 189.483,176.842 190.518 " stroke="none" fill="#000000" fill-rule="evenodd"></path></g></svg>