<svg xmlns:rdf="http://www.w3.org/1999/02/22-rdf-syntax-ns#" xmlns="http://www.w3.org/2000/svg" height="230" width="230" version="1.1" xmlns:cc="http://creativecommons.org/ns#" xmlns:xlink="http://www.w3.org/1999/xlink" viewBox="0 0 230 230" xmlns:dc="http://purl.org/dc/elements/1.1/">
 <defs>
  <clipPath id="SVGID_2_">
   <use xlink:href="#SVGID_1_" height="100%" width="100%" y="0" x="0" overflow="visible"/>
  </clipPath>
  <clipPath id="SVGID_4_">
   <use xlink:href="#SVGID_3_" height="100%" width="100%" y="0" x="0" overflow="visible"/>
  </clipPath>
  <clipPath id="SVGID_6_">
   <use xlink:href="#SVGID_5_" height="100%" width="100%" y="0" x="0" overflow="visible"/>
  </clipPath>
  <clipPath id="SVGID_8_">
   <use xlink:href="#SVGID_7_" height="100%" width="100%" y="0" x="0" overflow="visible"/>
  </clipPath>
  <clipPath id="SVGID_10_">
   <use xlink:href="#SVGID_9_" height="100%" width="100%" y="0" x="0" overflow="visible"/>
  </clipPath>
  <clipPath id="SVGID_12_">
   <use xlink:href="#SVGID_11_" height="100%" width="100%" y="0" x="0" overflow="visible"/>
  </clipPath>
  <rect id="SVGID_1_" y="195.1" width="2.9" height="2.9" x="304"/>
  <rect id="SVGID_3_" y="195.1" width="2.9" height="2.9" x="310"/>
  <rect id="SVGID_5_" y="199.7" width="2.9" height="2.9" x="307"/>
  <rect id="SVGID_7_" y="195.1" width="2.9" height="2.9" x="342.1"/>
  <rect id="SVGID_9_" y="195.1" width="2.9" height="2.9" x="336"/>
  <rect id="SVGID_11_" y="199.7" width="2.9" height="2.9" x="339"/>
 </defs>
 <g transform="translate(48.997 -871.38)">
  <g transform="translate(-162.57,-163.14)">
   <g opacity=".2" transform="translate(-99.612,952.27)">
    <path d="m384.8 239.5c1.7 0 3.2-1.8 3.5-2.2 0.1-0.1 0.1-0.2 0.2-0.3l3.6-9.5c0.5-1.3 0-2.9-1.3-4.4-1-1.1-2.4-2.1-3.7-2.6-0.3-0.1-0.7-0.2-1.1-0.2-1.5 0-3.1 0.9-4 2.3-0.6 1-1.5 3.1-0.1 6.3 1.2 2.6 0.9 3.5 0.6 4.5-0.3 0.9-2.3 0.8-1.7 2.6 0.5 2 3.3 3.5 4 3.5z"/>
    <path d="m390.7 242.8c-0.3-0.1 0.9 1.8 0.6 1.8-3.8 0-10.5 2.4-10.8 3.9-0.1 0.6 2.2 2.3 2.7 2.5 0.1 0 6 2.2 7.8 2.5h0.3c1.8 0 2.3-2.7 2.4-4.4 0.1-3-1.5-6.1-3-6.3z"/>
    <path d="m371.9 244.1c-1.2 0-0.2 3-1 4.2-1.2 1.9-2.9 4.5-6.8 4.9-0.3 0-0.6 0.2-0.8 0.5s-0.2 0.7 0 1c0.1 0.1 1.9 3.4 8.4 7.5 1.1 0.7 2 1 2.9 1 1.3 0 2.3-0.7 3-1.9 1.7-3.1 1-9.4-1.5-13.2-0.6-1-3-4-4.2-4z"/>
    <path d="m274.4 150.2c1.6-2.9 2.6-3.2 3.6-3.5s2.2-0.6 3.4-2.4c1-1.5 0.9-2.6 0.6-3.3-0.9-1.9-2.5-2.7-2.8-2.7-0.1 0-1.5 0.3-1.7 0.3l-10.6 2.3c-3.2 0.7-4.3 6.5-3.6 9.5 0.4 1.8 3 3.8 5.6 3.8 1.3 0 3.7-0.5 5.5-4z"/>
    <path d="m369.2 151.7c0.3 0 1.6 0.5 2.5 0.9 2.3 0.9 4 1.5 5.2 1.5 0.2 0 0.4 0 0.5-0.1 2-0.4 3.1-1.9 2.8-4-0.4-3.4-4.6-8.7-8.4-8.7-0.4 0-0.3 1-0.6 1.1-3 0.7-5.6 3.5-5.3 6.3 0.3 2.2 2.7 3 3.3 3z"/>
    <path d="m379.4 177.5c-0.3-0.3-0.7-1.6-0.8-2.2-0.1-0.3-1.1-2.1-1.3-2.2s-1.6-0.7-1.8-0.6l1.4 2.3s-0.1 0-0.1 0.1c-0.1 0.1-0.3 0.1-0.4 0.2-1.4 0.7-2.8 1.2-4.3 1.4-0.4 0.1-0.8 0.1-1.1 0.2-0.6 0.1-1.1 0.1-1.7 0.1h-0.3-1.2-0.3c-0.3 0-0.6-0.1-0.9-0.1-0.1 0-0.2 0-0.3-0.1-0.3-0.1-0.6-0.1-0.9-0.2-0.1 0-0.1 0-0.2-0.1-0.3-0.1-0.7-0.2-1-0.3h-0.1c-4.7-1.5-8.6-5.1-10.4-9.8-0.2-0.4-2-2.5-2.4-2.5l-0.9 0.6c-0.1 0 0.5 0.3 0.4 0.3l1.3 1c-7.6 0-13.9-6.2-14-13.8-0.1-4.1 1.7-8 4.8-10.7 0.3-0.3 0.4-0.8 0.3-1.2-0.2-0.4-0.3-0.8-0.4-1.3 0-0.2-0.2-1.3-0.2-1.5-0.3-0.9-2.2-1.7-2.5-1.8-5.5-2.3-9.6-1.6-16.2-1.9-0.2 0-0.4 0-0.5 0.1-0.9 0.5-3.7 1.9-5.4 2-2.6 0.2-6.1 2.9-7.9 5.4-0.8-0.1-1.7-0.1-2.6-0.1-3.9 0-6.9 1.1-8.8 3.2-2 0.1-10 0.9-15 7.7-1.1 1.5-2.4 3.1-3.7 4.7-5 6.3-11.3 14.1-12.2 23.4-0.2 0.9-1.7 9.3 2.4 11.7-0.6 1.8-1.8 6-1.8 11.1v0.3c0 3.1 0.5 6.6 1.7 10.1 0.3 1.5 4.3 19.5 11.3 26.4 3.4 3.4 6.8 5.6 9.8 7.4 3.3 2 6.1 3.8 8.4 6.8 3.5 4.5 11.9 5.2 16.6 5.2 3 0 5.5-0.3 6.6-0.5 1.6-0.4 2.2-0.3 3.4 0.1 0.5 0.1 1.1 0.3 1.9 0.5 0.4 0.1 0.9 0.1 1.5 0.1 1.8 0 17.6-0.5 32-16.3l0.1-0.1c1.2-1.9 4.7-7.2 7-8.7 3.2-2.2 11.2-14.1 12.1-21.9 0.8-2 8.3-24.8-1.4-34.5z"/>
    <path d="m352.2 148.1c1.7 0 5.9-1.1 6.8-4.5 0.4-1.3 1-2.8 1.6-4 1.2-2.8 1.3-4.1 0.4-6-0.5-1.1-1.9-2.1-2.3-2.1-2.3 0-5.1 4.2-5.6 4.5-0.3 0.2-0.5 0.5-0.5 0.9-0.1 5.6-0.7 5.8-1.1 6.3-0.6 0.3-2.3 2.8-2.3 2.8 0.2 0.1 2.1 2.1 3 2.1z"/>
   </g>
   <path fill="#edc999" d="m267.59 1128.1c-7.5 0.1-14-4.6-16.6-11.2h-0.4c-8.3 0.1-15.1-6.5-15.2-14.8-0.1-3.6 1.2-6.9 3.2-9.5-1.4-0.5-2.7-0.9-4.1-1.1-15-1-30 1-44 9-0.9 0-2.6 2.4-2.2 5-1.4 5.3-5.8 8.2-5.8 12-1 19 0 36-6 55-3 9 9 10 14 14 12 9 24 10 37 12 1 0 5-3 6-3 34.8 0 38.8-41.2 34.5-67.4h-0.4z"/>
   <path fill="#edc999" d="m239.79 1088.5c0.2 0.8 0.3 1.4 0.6 2.1-3.2 2.8-5.2 6.9-5.1 11.5 0.1 8.3 6.9 14.9 15.2 14.8h0.4c2.5 6.7 9 11.4 16.6 11.2 2.7 0 5.3-0.7 7.6-1.9 0.1-0.1 0.3-0.1 0.4-0.2l0.5-0.2c0.3 1.3 0.6 2.2 1.1 2.7 9.6 9.6 1.2 33.5 1.2 33.5-0.8 7.5-8.7 19.3-11.7 21.3s-7.3 9-7.3 9c-14 15.3-30 16.3-32.7 15.8s-3-1.2-5.8-0.5-17.6 1.7-22.2-4.3c-4.7-6-11.3-7.3-18.3-14.3s-11-26-11-26c-4-10.7 0.3-21.7 0.3-21.7-4.7-1.3-2.7-11-2.7-11 1-11.3 10.3-20.3 15.7-27.7 5.3-7.3 14.6-7.3 14.6-7.3 3-3.7 8.4-3.3 11.4-3 1.5-2.5 5.1-5.3 7.4-5.5s5.8-2.2 5.8-2.2c7.3 0.4 13.2 1.9 18 3.9z"/>
   <path opacity=".5" fill="#c29863" d="m275.99 1125.8c-0.3 0.2-0.6 0.3-0.8 0.5-2.2 1.1-4.6 1.8-7.2 1.8 4.3 26.2 0.4 67.4-34.5 67.4-1 0-5 3-6 3-13-2-25-3-37-12-5-4-17-5-14-14 6-19 5-36 6-55 0-3.8 4.4-6.6 5.8-12-0.4-2.6 1.3-5 2.2-5 14-8 29-10 44-9 1.4 0.2 2.7 0.6 4.1 1.1 0.6-0.7 1.2-1.4 1.9-2-0.3-0.7-0.6-1.4-0.7-2.2-4.8-2-10.7-3.5-17.7-3.7 0 0-3.5 2-5.8 2.2s-5.9 3-7.4 5.5c-3.1-0.3-8.5-0.7-11.4 3 0 0-9.3 0-14.6 7.3s-14.7 16.3-15.7 27.7c0 0-2 9.7 2.7 11 0 0-4.3 11-0.3 21.7 0 0 4 19 11 26s13.7 8.3 18.3 14.3c4.7 6 19.5 5 22.2 4.3 2.8-0.7 3.1 0 5.8 0.5s18.7-0.5 32.7-15.8c0 0 4.3-7 7.3-9s10.8-13.8 11.7-21.3c0 0 8.4-23.9-1.2-33.5-0.7-0.5-1-1.5-1.4-2.8z"/>
   <path fill="#9e6853" d="m234.49 1124.8c1.9-1.6 1.5-3 1.5-3-0.7-4-2.1-10.7-8.3-11.1h-0.6c-0.5 1-0.8 2.1-1.3 3-1.7 7.2 3 10.4 8.7 11.1z"/>
   <path fill="#825644" d="m225.89 1113.7c0.4-0.9 0.8-2 1.3-3-5.6 0.3-5.8 9.1-4.3 12.3 1.6 3.4 7.4 4.4 10.6 2.6 0.4-0.3 0.8-0.5 1.1-0.8-5.8-0.7-10.5-3.9-8.7-11.1z"/>
   <path fill="#9e6853" d="m181.69 1133.5c4 2.3 7.7 1.6 10.1-0.7-0.1-1.4-0.4-3-0.6-4.6-0.8-5.6-9.6-2.8-10.7 0 0 0-0.6 1.8-0.8 3.8 0.4 0.6 1.1 1.1 2 1.5z"/>
   <path fill="#825644" d="m181.69 1133.5c-0.9-0.4-1.5-0.9-2-1.4-0.2 2.9 0.6 6.4 5.4 6.6 6 0.3 6.9-2.3 6.7-5.9-2.4 2.3-6.1 3-10.1 0.7z"/>
   <path fill="#825644" d="m203.69 1194.7c-1.1-0.7-2.5-1.8-4.2-2.6-0.3 1.2-0.1 2.3 0.9 3.1 3.1 2.6 4.3 2.4 8.2 1.7 0 0 0.3-1.6 1.3-4.6-1.9 1.6-4.5 2.5-6.2 2.4z"/>
   <path fill="#9e6853" d="m204.29 1187c-1.6 0.2-4.2 2.7-4.8 5.1 1.7 0.8 3 1.8 4.2 2.6 1.8 0.1 4.3-0.8 6.2-2.3 0.2-0.4 0.3-0.9 0.5-1.4 1.5-4-3.7-4.3-6.1-4z"/>
   <path fill="#9e6853" d="m273.09 1152.9s-4.4 0.7-7.2 1.4c-1.3 0.3-2.8 1.9-3.5 3.8 0.4 0.9 1.1 1.7 1.5 2.2 4.7 3 8 0 11-3.9-0.2-1.8-0.7-3.4-1.8-3.5z"/>
   <path fill="#825644" d="m264.39 1159.5c-0.4-0.5-1.1-1.3-1.5-2.2-0.8 2.2-0.6 4.8 2 6.7 4.8 3.6 8.9-1.2 9.9-3.4 0.5-1.1 0.7-3.2 0.6-5-3 3.9-6.3 6.9-11 3.9z"/>
   <path fill="#9e6853" d="m255.59 1165.6c-1.2-1.4-2.8-1.7-2.6-0.9 0.2 1-2 2.9-3.4 4.1-1.3 1.2-4.7 2.4-4.7 3 0 0 0.3 0.6 1 0.7 0.2 0 0.6 0.2 1.1 0.5 3.9-1.6 7.6-3.2 8.6-7.4z"/>
   <path fill="#825644" d="m246.99 1173.1c2 1 5.6 3 6.3 2.1 0.9-1.2 0.7-0.5 2.2-1.1 1.5-0.5 1.8-3.1 1.1-6.3-0.2-0.9-0.6-1.6-1.1-2.2-0.9 4.2-4.6 5.8-8.5 7.5z"/>
   <path fill="#825644" d="m169.29 1163 2-2c2-2 3.7 0.5 4.7 0 0.6-0.3 1.1-1.9 1.1-3.1-2.6 0.7-6.9 1.7-8.8-0.9 0.5 2.5 1 6 1 6z"/>
   <path fill="#9e6853" d="m175.99 1157.1c-1.8 1.4-8.4-4.5-8.4-4.5-0.1 1.6 0 2.4 0.4 4.5 3.2 3 6.5 1.5 9.1 0.9 0-0.9-0.3-1.5-1.1-0.9z"/>
   <g stroke-linejoin="round" stroke="#333a3e" stroke-linecap="round" stroke-miterlimit="10" stroke-width="2" fill="none">
    <path d="m236.09 1121.8c-0.7-4-2.1-10.7-8.3-11.1s-6.5 9-4.9 12.3c1.6 3.4 7.4 4.4 10.6 2.6 3.1-1.9 2.6-3.8 2.6-3.8z"/>
    <path d="m180.39 1128.3c1.1-2.8 9.9-5.6 10.7 0s2.2 10.8-6.1 10.4-4.6-10.4-4.6-10.4z"/>
    <path d="m208.59 1196.9c-3.8 0.7-5 0.9-8.2-1.7-3.1-2.6 1.5-7.9 3.8-8.3 2.4-0.3 7.6 0 6.1 3.9-1.3 4-1.7 6.1-1.7 6.1z"/>
    <path d="m273.59 1152.1c2.2 0.1 2.2 6.2 1.2 8.4s-5.1 7-9.9 3.4-1.3-9.8 1.5-10.5 7.2-1.3 7.2-1.3z"/>
    <path d="m244.89 1171.8c0-0.6 3.3-1.8 4.7-3 1.3-1.2 3.5-3.1 3.4-4.1s3-0.1 3.7 3.1 0.5 5.7-1.1 6.3c-1.5 0.5-1.4-0.1-2.2 1.1-0.9 1.2-6.8-2.4-7.5-2.6s-1-0.8-1-0.8z"/>
    <path d="m167.59 1152.5s6.5 5.9 8.4 4.5 1 3.4 0 4c-1 0.5-2.7-2-4.7 0l-2 2s-1.9-6.9-1.7-10.5z"/>
   </g>
   <path fill="#edc999" d="m251.89 1087.1c0 4.5-0.5 9.5-1.6 10.1s5.1 0.2 6.1-3.6c1.1-3.8 4.1-8.1 2.5-8.9-1.6-0.7-7 2.4-7 2.4z"/>
   <g transform="translate(-99.612,952.27)">
    <circle cy="158.4" cx="306.5" r="10.4" fill="#fc7c7b"/>
    <path fill="#e66665" d="m314.5 151.7c0.2 0.8 0.3 1.6 0.3 2.4 0 5.7-4.7 10.4-10.4 10.4-3.2 0-6.1-1.5-8-3.7 1.1 4.6 5.2 8 10.1 8 5.7 0 10.4-4.7 10.4-10.4 0-2.5-0.9-4.9-2.4-6.7z"/>
    <circle stroke-linejoin="round" cx="306.5" stroke-linecap="round" stroke="#333a3e" cy="158.4" r="10.4" stroke-miterlimit="10" stroke-width="2" fill="none"/>
   </g>
   <g transform="translate(-99.612,952.27)">
    <circle cy="212.3" cx="293.6" r="10.4" fill="#fda244"/>
    <path fill="#de8a35" d="m301.6 205.7c0.2 0.8 0.3 1.6 0.3 2.4 0 5.7-4.7 10.4-10.4 10.4-3.2 0-6.1-1.5-8-3.7 1.1 4.6 5.2 8 10.1 8 5.7 0 10.4-4.7 10.4-10.4 0-2.6-0.9-4.9-2.4-6.7z"/>
    <circle stroke-linejoin="round" cx="293.6" stroke-linecap="round" stroke="#333a3e" cy="212.3" r="10.4" stroke-miterlimit="10" stroke-width="2" fill="none"/>
   </g>
   <g transform="translate(-99.612,952.27)">
    <circle cy="233.5" cx="334.7" r="10.4" fill="#6ec8a7"/>
    <path fill="#62b395" d="m341.8 225.9c0.3 0.8 0.5 1.5 0.6 2.4 0.7 5.7-3.4 10.9-9.1 11.6-3.2 0.4-6.2-0.7-8.4-2.8 1.6 4.4 6.1 7.3 11 6.7 5.7-0.7 9.8-5.9 9.1-11.6-0.3-2.5-1.5-4.7-3.2-6.3z"/>
    <circle stroke-linejoin="round" cx="334.7" stroke-linecap="round" stroke="#333a3e" cy="233.5" r="10.4" stroke-miterlimit="10" stroke-width="2" fill="none"/>
   </g>
   <g transform="translate(-99.612,952.27)">
    <path fill="#ff9d9b" d="m317.3 201.7c1.3 3.4 4 5.7 7.2 5.7s5.9-2.3 7.2-5.7h-14.4z"/>
    <path stroke-linejoin="round" d="m317.3 201.7c1.3 3.4 4 5.7 7.2 5.7s5.9-2.3 7.2-5.7h-14.4z" stroke="#333a3e" stroke-linecap="round" stroke-miterlimit="10" stroke-width="2" fill="none"/>
    <path fill="#333a3e" d="m313.7 189.1c0 1.7-1.4 3.1-3.1 3.1s-3.1-1.4-3.1-3.1 1.4-3.1 3.1-3.1 3.1 1.4 3.1 3.1"/>
    <g opacity=".5">
     <clipPath>
      <use xlink:href="#SVGID_1_" height="100%" width="100%" y="0" x="0" overflow="visible"/>
     </clipPath>
     <path fill="#333a3e" d="m306.8 196.6c0 0.8-0.6 1.4-1.4 1.4s-1.4-0.6-1.4-1.4 0.6-1.4 1.4-1.4c0.8-0.1 1.4 0.6 1.4 1.4" clip-path="url(#SVGID_2_)"/>
    </g>
    <g opacity=".5">
     <clipPath>
      <use xlink:href="#SVGID_3_" height="100%" width="100%" y="0" x="0" overflow="visible"/>
     </clipPath>
     <path fill="#333a3e" d="m312.9 196.6c0 0.8-0.6 1.4-1.4 1.4s-1.4-0.6-1.4-1.4 0.6-1.4 1.4-1.4c0.7-0.1 1.4 0.6 1.4 1.4" clip-path="url(#SVGID_4_)"/>
    </g>
    <g opacity=".5">
     <clipPath>
      <use xlink:href="#SVGID_5_" height="100%" width="100%" y="0" x="0" overflow="visible"/>
     </clipPath>
     <path fill="#333a3e" d="m309.9 201.1c0 0.8-0.6 1.4-1.4 1.4s-1.4-0.6-1.4-1.4 0.6-1.4 1.4-1.4c0.7 0 1.4 0.6 1.4 1.4" clip-path="url(#SVGID_6_)"/>
    </g>
    <path fill="#5e506c" d="m341.4 189.1c0 1.7-1.4 3.1-3.1 3.1s-3.1-1.4-3.1-3.1 1.4-3.1 3.1-3.1 3.1 1.4 3.1 3.1"/>
    <path fill="#333a3e" d="m335.1 189.1c0 1.7 1.4 3.1 3.1 3.1s3.1-1.4 3.1-3.1-1.4-3.1-3.1-3.1-3.1 1.4-3.1 3.1"/>
    <g opacity=".5">
     <clipPath>
      <use xlink:href="#SVGID_7_" height="100%" width="100%" y="0" x="0" overflow="visible"/>
     </clipPath>
     <path fill="#333a3e" d="m342.1 196.6c0 0.8 0.6 1.4 1.4 1.4s1.4-0.6 1.4-1.4-0.6-1.4-1.4-1.4c-0.8-0.1-1.4 0.6-1.4 1.4" clip-path="url(#SVGID_8_)"/>
    </g>
    <g opacity=".5">
     <clipPath>
      <use xlink:href="#SVGID_9_" height="100%" width="100%" y="0" x="0" overflow="visible"/>
     </clipPath>
     <path fill="#333a3e" d="m336 196.6c0 0.8 0.6 1.4 1.4 1.4s1.4-0.6 1.4-1.4-0.6-1.4-1.4-1.4c-0.7-0.1-1.4 0.6-1.4 1.4" clip-path="url(#SVGID_10_)"/>
    </g>
    <g opacity=".5">
     <clipPath>
      <use xlink:href="#SVGID_11_" height="100%" width="100%" y="0" x="0" overflow="visible"/>
     </clipPath>
     <path fill="#333a3e" d="m339 201.1c0 0.8 0.6 1.4 1.4 1.4s1.4-0.6 1.4-1.4-0.6-1.4-1.4-1.4c-0.7 0-1.4 0.6-1.4 1.4" clip-path="url(#SVGID_12_)"/>
    </g>
   </g>
   <path fill="#f3ce9d" d="m285.79 1187.1c1.1-3 2.7-7.3 3.6-9.5 0.8-2.2-2.4-4.9-4.4-5.7s-6.2 1.9-3.9 7.1-0.6 4.9 0.6 8.4c1.1 3.5 4.1-0.3 4.1-0.3z"/>
   <path stroke-linejoin="round" d="m285.79 1187.1c1.1-3 2.7-7.3 3.6-9.5 0.8-2.2-2.4-4.9-4.4-5.7s-6.2 1.9-3.9 7.1-0.6 4.9 0.6 8.4c1.1 3.5 4.1-0.3 4.1-0.3z" stroke="#333a3e" stroke-linecap="round" stroke-miterlimit="10" stroke-width="2" fill="none"/>
   <path fill="#9e6853" d="m290.49 1195.9c1.1 0.2 0.6 7-0.9 6.8-1.5-0.3-6.7-2.1-7.6-2.4-0.8-0.3 4.5-5 8.5-4.4z"/>
   <path stroke-linejoin="round" d="m290.49 1195.9c1.1 0.2 0.6 7-0.9 6.8-1.5-0.3-6.7-2.1-7.6-2.4-0.8-0.3 4.5-5 8.5-4.4z" stroke="#333a3e" stroke-linecap="round" stroke-miterlimit="10" stroke-width="2" fill="none"/>
   <path fill="#f3ce9d" d="m262.59 1204.5c8.5-0.8 7.7-11 11.1-5.6 3.5 5.4 3.2 16.8-3.1 12.7-6.3-4-8-7.1-8-7.1z"/>
   <path stroke-linejoin="round" d="m262.59 1204.5c8.5-0.8 7.7-11 11.1-5.6 3.5 5.4 3.2 16.8-3.1 12.7-6.3-4-8-7.1-8-7.1z" stroke="#333a3e" stroke-linecap="round" stroke-miterlimit="10" stroke-width="2" fill="none"/>
   <path fill="#f3ce9d" d="m177.19 1090.8c-3.3 0.7-8.2 1.8-10.6 2.3s-2.9 5.7-2.3 8.4 5.6 5.4 8.6-0.4c3.1-5.8 4.7-2.5 7.1-6 2.4-3.6-2.8-4.3-2.8-4.3z"/>
   <path stroke-linejoin="round" d="m177.19 1090.8c-3.3 0.7-8.2 1.8-10.6 2.3s-2.9 5.7-2.3 8.4 5.6 5.4 8.6-0.4c3.1-5.8 4.7-2.5 7.1-6 2.4-3.6-2.8-4.3-2.8-4.3z" stroke="#333a3e" stroke-linecap="round" stroke-miterlimit="10" stroke-width="2" fill="none"/>
   <path fill="#9e6853" d="m269.89 1093.7c4.9-1.1 11.1 8.4 5.7 9.6-1.5 0.3-7-2.4-8-2.3-0.8 0-1.7-6.4 2.3-7.3z"/>
   <path stroke-linejoin="round" d="m269.89 1093.7c4.9-1.1 11.1 8.4 5.7 9.6-1.5 0.3-7-2.4-8-2.3-0.8 0-1.7-6.4 2.3-7.3z" stroke="#333a3e" stroke-linecap="round" stroke-miterlimit="10" stroke-width="2" fill="none"/>
   <path stroke-linejoin="round" d="m239.79 1088.5c0.2 0.8 0.3 1.4 0.6 2.1-3.2 2.8-5.2 6.9-5.1 11.5 0.1 8.3 6.9 14.9 15.2 14.8h0.4c2.5 6.7 9 11.4 16.6 11.2 2.7 0 5.3-0.7 7.6-1.9 0.1-0.1 0.3-0.1 0.4-0.2l0.5-0.2c0.3 1.3 0.6 2.2 1.1 2.7 9.6 9.6 1.2 33.5 1.2 33.5-0.8 7.5-8.7 19.3-11.7 21.3s-7.3 9-7.3 9c-14 15.3-30 16.3-32.7 15.8s-3-1.2-5.8-0.5-17.6 1.7-22.2-4.3c-4.7-6-11.3-7.3-18.3-14.3s-11-26-11-26c-4-10.7 0.3-21.7 0.3-21.7-4.7-1.3-2.7-11-2.7-11 1-11.3 10.3-20.3 15.7-27.7 5.3-7.3 14.6-7.3 14.6-7.3 3-3.7 8.4-3.3 11.4-3 1.5-2.5 5.1-5.3 7.4-5.5s5.8-2.2 5.8-2.2c7.3 0.4 13.2 1.9 18 3.9v0z" stroke="#333a3e" stroke-linecap="round" stroke-miterlimit="10" stroke-width="2" fill="none"/>
   <path fill="#5e9dce" d="m270.69 1127.9c-1 0.2-2.1 0.4-3.2 0.4-3.1 0-5.9-0.8-8.3-2.3-2.9 1.3-5.1 3.9-5.8 7.3-1.2 5.6 2.4 11.1 8 12.3s11.1-2.4 12.3-8c0.9-3.7-0.4-7.3-3-9.7z"/>
   <path fill="#3382c1" d="m272.79 1130.5c0 0.8 0 1.6-0.2 2.4-1.2 5.6-6.7 9.2-12.3 8-3.1-0.7-5.6-2.7-7-5.3 0.1 4.7 3.4 8.9 8.2 9.9 5.6 1.2 11.1-2.4 12.3-8 0.5-2.4 0.1-4.9-1-7z"/>
   <path stroke-linejoin="round" d="m270.69 1127.9c-1 0.2-2.1 0.4-3.2 0.4-3.1 0-5.9-0.8-8.3-2.3-2.9 1.3-5.1 3.9-5.8 7.3-1.2 5.6 2.4 11.1 8 12.3s11.1-2.4 12.3-8c0.9-3.7-0.4-7.3-3-9.7z" stroke="#333a3e" stroke-linecap="round" stroke-miterlimit="10" stroke-width="2" fill="none"/>
   <path stroke-linejoin="round" d="m251.89 1087.1c0 4.5-0.5 9.5-1.6 10.1s5.1 0.2 6.1-3.6c1.1-3.8 4.1-8.1 2.5-8.9-1.6-0.7-7 2.4-7 2.4z" stroke="#333a3e" stroke-linecap="round" stroke-miterlimit="10" stroke-width="2" fill="none"/>
   <path opacity=".7" fill="#fff" d="m269.49 1134.9c0.3-0.3 0.3-0.7 0-1s-0.7-0.3-1 0c-0.6 0.6-1.3 1-2.1 1.2l-0.8-5.1c-0.1-0.3-0.3-0.5-0.5-0.6-0.3-0.1-0.5 0-0.7 0.3l-2.5 3.7c0.3 0.3 0.7 0.6 1.2 0.8l1.6-2.2 0.6 3.4c-0.4 0-0.8 0-1.2-0.1-1.7-0.4-3-1.5-3.7-3.1-0.2-0.4-0.6-0.5-0.9-0.4-0.4 0.2-0.5 0.5-0.4 0.9 0.8 2 2.6 3.4 4.7 3.9 0.6 0.1 1.2 0.2 1.8 0.1l0.8 4.9c0.1 0.4 0.4 0.6 0.8 0.6 0.4-0.1 0.6-0.4 0.6-0.8l-0.8-4.9c0.8-0.2 1.7-0.8 2.5-1.6m-10 2c-0.2 0.3-0.1 0.8 0.2 1s0.8 0.1 1-0.2l0.8-1.1c-0.4-0.2-0.8-0.5-1.2-0.8l-0.8 1.1z"/>
  </g>
 </g>
</svg>
