<svg xmlns="http://www.w3.org/2000/svg" width="76" height="76" viewBox="0 0 76 76">
    <g fill="none" fill-rule="evenodd" transform="translate(2 2)">
        <rect width="72" height="72" stroke="#8671FF" stroke-width="4" rx="21.6"/>
        <path fill="#8671FF" fill-rule="nonzero" d="M46.8 51.12l4.617.001c-3.923 3.998-9.39 6.479-15.439 6.479-6.037 0-11.493-2.481-15.409-6.479l4.631-.001c6.648 3.989 14.952 3.989 21.6 0zm-27-10.8l4.32 8.64h-5.4c-1.887-2.505-3.24-5.444-3.888-8.64H19.8zm37.367 0c-.649 3.192-2.002 6.129-3.891 8.64H47.88l4.32-8.64zm-42.66-2.16c-.07-.71-.107-1.43-.107-2.16 0-11.923 9.655-21.6 21.578-21.6C47.923 14.4 57.6 24.077 57.6 36c0 .73-.036 1.45-.107 2.16zM28.44 25.2c-1.793 0-3.24 1.447-3.24 3.24 0 1.793 1.447 3.24 3.24 3.24 1.793 0 3.24-1.447 3.24-3.24 0-1.793-1.447-3.24-3.24-3.24zm15.12 0c-1.793 0-3.24 1.447-3.24 3.24 0 1.793 1.447 3.24 3.24 3.24 1.793 0 3.24-1.447 3.24-3.24 0-1.793-1.447-3.24-3.24-3.24z"/>
    </g>
</svg>
