<svg xmlns="http://www.w3.org/2000/svg" width="36" height="36" viewBox="0 0 36 36">
    <g fill="none" fill-rule="evenodd">
        <circle cx="18" cy="18" r="18" fill="#009EFF"/>
        <g>
            <path d="M0 0L32 0 32 32 0 32z" transform="translate(2 2)"/>
            <path fill="#FFF" fill-rule="nonzero" d="M14 12h4c.373 0 .667-.293.667-.667V8h2.386c.6 0 .894-.72.467-1.133l-5.053-5.054c-.267-.266-.68-.266-.947 0l-5.053 5.054c-.414.413-.12 1.133.48 1.133h2.386v3.333c0 .374.294.667.667.667zm-2.667 1.333H8v-2.386c0-.6-.72-.894-1.133-.467l-5.054 5.053c-.266.267-.266.68 0 .947l5.054 5.053c.413.414 1.133.12 1.133-.48v-2.386h3.333c.374 0 .667-.294.667-.667v-4c0-.373-.293-.667-.667-.667zm18.867 2.2l-5.053-5.053c-.427-.427-1.147-.133-1.147.467v2.386h-3.333c-.374 0-.667.294-.667.667v4c0 .373.293.667.667.667H24v2.386c0 .6.72.894 1.133.467l5.054-5.053c.266-.254.266-.68.013-.934zM18 20h-4c-.373 0-.667.293-.667.667V24h-2.386c-.6 0-.894.72-.467 1.133l5.053 5.054c.267.266.68.266.947 0l5.053-5.054c.414-.413.12-1.133-.466-1.133h-2.4v-3.333c0-.374-.294-.667-.667-.667z" transform="translate(2 2)"/>
        </g>
    </g>
</svg>
