<svg xmlns="http://www.w3.org/2000/svg" width="40" height="44" viewBox="0 0 40 44">
    <g fill="none" fill-rule="evenodd" transform="translate(-4 -2)">
        <path d="M0 0L48 0 48 48 0 48z"/>
        <path fill="#FFFFFF" fill-rule="nonzero" d="M32.98 10.96c2.2 0 4-1.8 4-4s-1.8-4-4-4-4 1.8-4 4 1.8 4 4 4zm-6.34 24l1.14-5 4.2 4v10c0 1.1.9 2 2 2s2-.9 2-2V32.68c0-1.1-.44-2.14-1.24-2.9l-2.96-2.82 1.2-6c2.14 2.48 5.24 4.26 8.72 4.82 1.2.18 2.28-.78 2.28-2 0-.98-.72-1.8-1.7-1.96-3.04-.5-5.56-2.3-6.9-4.66l-2-3.2c-.8-1.2-2-2-3.4-2-.6 0-1 .2-1.6.2l-7.96 3.36c-1.48.64-2.44 2.08-2.44 3.7v4.74c0 1.1.9 2 2 2s2-.9 2-2v-4.8l3.6-1.4-3.2 16.2-7.84-1.6c-1.08-.22-2.14.48-2.36 1.56V34c-.22 1.08.48 2.14 1.56 2.36L21.96 38c2.12.42 4.2-.92 4.68-3.04z"/>
        <rect width="8" height="4" x="14" y="6" fill="#FFFFFF" fill-rule="nonzero" rx="2"/>
        <rect width="12" height="4" x="4" y="14" fill="#FFFFFF" fill-rule="nonzero" rx="2"/>
        <rect width="10" height="4" x="4" y="24" fill="#FFFFFF" fill-rule="nonzero" rx="2"/>
    </g>
</svg>
