<svg xmlns="http://www.w3.org/2000/svg" width="28" height="29" viewBox="0 0 28 29">
    <g fill="none" fill-rule="evenodd" transform="translate(-2 -2)">
        <path d="M0 0L32 0 32 32 0 32z"/>
        <path fill="#FFF" fill-rule="nonzero" d="M21.987 7.307c1.466 0 2.666-1.2 2.666-2.667 0-1.467-1.2-2.667-2.666-2.667-1.467 0-2.667 1.2-2.667 2.667 0 1.467 1.2 2.667 2.667 2.667zm-4.227 16l.76-3.334 2.8 2.667v6.667c0 .733.6 1.333 1.333 1.333.734 0 1.334-.6 1.334-1.333v-7.52c0-.734-.294-1.427-.827-1.934l-1.973-1.88.8-4c1.426 1.654 3.493 2.84 5.813 3.214.8.12 1.52-.52 1.52-1.334 0-.653-.48-1.2-1.133-1.306-2.027-.334-3.707-1.534-4.6-3.107l-1.334-2.133c-.533-.8-1.333-1.334-2.266-1.334-.4 0-.667.134-1.067.134l-5.307 2.24c-.986.426-1.626 1.386-1.626 2.466v3.16c0 .734.6 1.334 1.333 1.334s1.333-.6 1.333-1.334v-3.2l2.4-.933-2.133 10.8-5.227-1.067c-.72-.146-1.426.32-1.573 1.04v.054c-.147.72.32 1.426 1.04 1.573l5.48 1.093c1.413.28 2.8-.613 3.12-2.026z"/>
        <rect width="5.333" height="2.667" x="9.333" y="4" fill="#FFF" fill-rule="nonzero" rx="1.333"/>
        <rect width="8" height="2.667" x="2.667" y="9.333" fill="#FFF" fill-rule="nonzero" rx="1.333"/>
        <rect width="6.667" height="2.667" x="2.667" y="16" fill="#FFF" fill-rule="nonzero" rx="1.333"/>
    </g>
</svg>
