<svg xmlns="http://www.w3.org/2000/svg" width="72" height="72" viewBox="0 0 72 72">
    <g fill="none" fill-rule="evenodd">
        <rect width="68" height="68" x="2" y="2" stroke="#DAB087" stroke-width="4" rx="21.6"/>
        <g>
            <path d="M0 0L43.2 0 43.2 43.2 0 43.2z" transform="translate(14.4 14.4)"/>
            <path fill="#DAB087" fill-rule="nonzero" d="M13.195 33.857c-2.073 0-3.75 1.697-3.75 3.772 0 2.074 1.677 3.771 3.75 3.771 2.074 0 3.77-1.697 3.77-3.771 0-2.075-1.696-3.772-3.77-3.772zM0 3.686C0 4.723.848 5.57 1.885 5.57H3.77l8.671 16.199-2.545 4.6c-1.376 2.528.434 5.601 3.3 5.601H33.93c1.037 0 1.885-.848 1.885-1.885S34.968 28.2 33.93 28.2H13.195l2.074-3.771h14.043c1.414 0 2.658-.774 3.3-1.943l6.748-12.238c.697-1.245-.208-2.79-1.64-2.79H9.82L6.673 2.874c-.302-.66-.98-1.075-1.696-1.075H1.885C.848 1.8 0 2.649 0 3.686zm32.046 30.171c-2.074 0-3.751 1.697-3.751 3.772 0 2.074 1.677 3.771 3.75 3.771 2.074 0 3.77-1.697 3.77-3.771 0-2.075-1.696-3.772-3.77-3.772z" transform="translate(14.4 14.4)"/>
        </g>
    </g>
</svg>
