<svg xmlns="http://www.w3.org/2000/svg" width="76" height="76" viewBox="0 0 76 76">
    <g fill="none" fill-rule="evenodd" transform="translate(2 2)">
        <rect width="72" height="72" stroke="#86CFF7" stroke-width="4" rx="21.6"/>
        <g>
            <path d="M0 0L43.2 0 43.2 43.2 0 43.2z" transform="translate(14.4 14.4)"/>
            <path fill="#86CFF7" fill-rule="nonzero" d="M21.6 18.138c.562 0 1.145 0 1.685.087.237.044.475.11.713.197 1.512.522 2.786 1.699 3.78 2.875 1.9 2.222 3.477 4.117 5.356 6.34 2.83 2.853 6.308 6.012 5.638 10.456-.626 2.2-2.203 4.422-5.033 5.054-1.577.305-6.61-.959-11.966-.959h-.389c-5.357 0-10.39 1.286-11.966.959-2.83-.632-4.407-2.832-5.033-5.054-.648-4.422 2.83-7.581 5.659-10.435 1.9-2.222 3.478-4.117 5.357-6.34 1.015-1.176 2.268-2.352 3.78-2.875.237-.087.475-.152.713-.196.561-.109 1.144-.109 1.706-.109zM5.4 10.514c2.982 0 5.4 2.438 5.4 5.446 0 3.008-2.418 5.446-5.4 5.446S0 18.968 0 15.96c0-3.008 2.418-5.446 5.4-5.446zm32.4 0c2.982 0 5.4 2.438 5.4 5.446 0 3.008-2.418 5.446-5.4 5.446s-5.4-2.438-5.4-5.446c0-3.008 2.418-5.446 5.4-5.446zM15.12 1.8c2.982 0 5.4 2.438 5.4 5.446 0 3.008-2.418 5.446-5.4 5.446s-5.4-2.438-5.4-5.446c0-3.008 2.418-5.446 5.4-5.446zm12.96 0c2.982 0 5.4 2.438 5.4 5.446 0 3.008-2.418 5.446-5.4 5.446s-5.4-2.438-5.4-5.446c0-3.008 2.418-5.446 5.4-5.446z" transform="translate(14.4 14.4)"/>
        </g>
    </g>
</svg>
