<svg xmlns="http://www.w3.org/2000/svg" width="72" height="72" viewBox="0 0 72 72">
    <g fill="none" fill-rule="evenodd">
        <rect width="68" height="68" x="2" y="2" stroke="#F174FF" stroke-width="4" rx="21.6"/>
        <path fill="#F174FF" fill-rule="nonzero" d="M50.4 25.2h-7.2v-3.6c0-1.998-1.602-3.6-3.6-3.6h-7.2c-1.998 0-3.6 1.602-3.6 3.6v3.6h-7.2c-1.998 0-3.582 1.602-3.582 3.6L18 48.6c0 1.998 1.602 3.6 3.6 3.6h28.8c1.998 0 3.6-1.602 3.6-3.6V28.8c0-1.998-1.602-3.6-3.6-3.6zm-13.2 5.4c.66 0 1.2.54 1.2 1.2v3.6H42c.66 0 1.2.54 1.2 1.2V39c0 .66-.54 1.2-1.2 1.2h-3.6v3.6c0 .66-.54 1.2-1.2 1.2h-2.4c-.66 0-1.2-.54-1.2-1.2v-3.6H30c-.66 0-1.2-.54-1.2-1.2v-2.4c0-.66.54-1.2 1.2-1.2h3.6v-3.6c0-.66.54-1.2 1.2-1.2h2.4zm2.4-9v3.6h-7.2v-3.6h7.2z"/>
    </g>
</svg>
