
<svg xmlns="http://www.w3.org/2000/svg" width="64" height="50" viewBox="0 0 64 50">
    <g fill="#1F2E66" opacity=".5">
        <path d="M59.755 18.158L48.833 6.155c-2.162-2.162-5.683-2.165-7.864.017-.691.691-1.162 1.52-1.406 2.403-2.173-1.665-5.307-1.5-7.309.502-.689.691-1.16 1.52-1.409 2.4-2.173-1.66-5.307-1.497-7.306.505-.677.677-1.142 1.484-1.394 2.344L16.997 9.18c-2.161-2.162-5.682-2.164-7.864.017-2.164 2.161-2.164 5.682 0 7.846L28.91 36.82l-11.73 1.842c-3.17.453-5.56 3.207-5.56 6.411 0 2.403 1.955 4.358 4.357 4.358h27.391c4.268 0 8.28-1.662 11.298-4.68l4.57-4.57c3.014-3.012 4.673-7.02 4.673-11.283 0-3.98-1.476-7.793-4.154-10.74zm-2.574 19.969l-4.57 4.569c-2.468 2.47-5.751 3.829-9.243 3.829h-27.39c-.803 0-1.453-.651-1.453-1.453 0-1.766 1.319-3.285 3.088-3.538l14.568-2.29c.54-.083.985-.464 1.156-.984.169-.517.032-1.09-.354-1.476L11.187 14.99c-1.031-1.032-1.031-2.71.015-3.76.517-.514 1.194-.772 1.87-.772.677 0 1.354.258 1.871.775l14.534 14.534c.566.566 1.487.566 2.054 0 .281-.285.424-.656.424-1.028s-.142-.744-.427-1.029l-5.935-5.935c-1.031-1.03-1.031-2.707.017-3.756 1.029-1.028 2.71-1.028 3.74 0l5.937 5.938c.566.566 1.487.566 2.054 0 .281-.285.424-.656.424-1.028s-.142-.744-.427-1.029l-3.03-3.03c-1.031-1.03-1.031-2.707.017-3.756 1.029-1.028 2.71-1.028 3.74 0l3.043 3.045c.006.002.003.002.003.002l.003.003.003.003.003.003h.003c.003 0 .003.003.003.003.569.54 1.47.529 2.024-.03.567-.566.567-1.486 0-2.053l-.125-.125c-.5-.5-.775-1.165-.775-1.87 0-.707.273-1.369.79-1.886 1.034-1.028 2.707-1.025 3.692-.05l10.876 11.955c2.188 2.408 3.396 5.528 3.396 8.784 0 3.486-1.356 6.763-3.823 9.23z"/>
        <path d="M24.971 7.752C22.856 3.072 18.185.045 13.072.045 5.865.045 0 5.91 0 13.118c0 5.112 3.027 9.784 7.707 11.901.194.088.398.128.598.128.552 0 1.08-.32 1.325-.854.328-.732.003-1.592-.726-1.923-3.643-1.647-5.999-5.278-5.999-9.252 0-5.607 4.56-10.168 10.167-10.168 3.974 0 7.606 2.356 9.253 5.999.328.732 1.19 1.06 1.92.726.732-.33 1.057-1.19.726-1.923z"/>
    </g>
</svg>
