<svg xmlns="http://www.w3.org/2000/svg" width="30" height="29" viewBox="0 0 30 29">
    <path fill="#FF656D" fill-rule="evenodd" d="M14.674 0c1.105 0 2 .895 2 2v2c0 .061-.005.12-.016.179 1.985.36 3.786 1.256 5.247 2.531.034-.04.074-.079.118-.114l1.554-1.259c.858-.695 2.118-.562 2.813.296.695.858.563 2.118-.296 2.813L24.54 9.705c-.052.042-.107.078-.165.108.83 1.544 1.3 3.31 1.3 5.187 0 .158-.004.315-.01.472.06 0 .122.009.184.023l1.949.45c1.076.249 1.747 1.323 1.499 2.399-.249 1.076-1.323 1.747-2.399 1.499l-1.949-.45c-.057-.013-.112-.031-.164-.053-.784 1.825-2.05 3.396-3.636 4.553.034.044.064.092.089.144l.877 1.798c.484.993.071 2.19-.921 2.674-.993.484-2.19.072-2.675-.92l-.876-1.798c-.029-.059-.051-.118-.067-.179-.924.253-1.897.388-2.902.388-1.005 0-1.978-.135-2.903-.387-.014.06-.037.12-.065.178l-.877 1.797c-.484.993-1.681 1.405-2.674.921-.993-.484-1.405-1.681-.921-2.674l.877-1.798c.025-.052.054-.1.087-.146-1.586-1.156-2.85-2.727-3.635-4.553-.052.024-.107.042-.164.055l-1.949.45c-1.076.248-2.15-.423-2.398-1.5-.249-1.075.422-2.15 1.499-2.398l1.948-.45c.062-.014.124-.022.186-.025-.007-.155-.01-.312-.01-.47 0-1.876.469-3.643 1.297-5.189-.056-.028-.111-.064-.164-.106L3.254 8.446c-.858-.695-.99-1.955-.296-2.813.696-.858 1.955-.99 2.813-.296l1.555 1.26c.043.034.083.073.12.113 1.458-1.275 3.259-2.17 5.246-2.532-.012-.057-.018-.117-.018-.178V2c0-1.105.896-2 2-2z"/>
</svg>
